<svg width="1246" height="288" viewBox="0 0 1246 288" fill="none" xmlns="http://www.w3.org/2000/svg">
<g clip-path="url(#clip0_230_2)">
<circle cx="144" cy="145" r="127" fill="white"/>
<mask id="mask0_230_2" style="mask-type:luminance" maskUnits="userSpaceOnUse" x="0" y="0" width="1246" height="288">
<path d="M1246 0H0V288H1246V0Z" fill="white"/>
</mask>
<g mask="url(#mask0_230_2)">
<path d="M356 218.69V100.423H387.944V121.058H389.181C391.347 113.717 394.982 108.174 400.087 104.426C405.192 100.628 411.07 98.7285 417.722 98.7285C419.372 98.7285 421.151 98.8311 423.059 99.0365C424.967 99.2418 426.643 99.5241 428.086 99.8834V128.988C426.539 128.526 424.4 128.116 421.667 127.756C418.934 127.397 416.433 127.218 414.164 127.218C409.317 127.218 404.986 128.27 401.17 130.374C397.406 132.428 394.415 135.302 392.198 138.998C390.032 142.694 388.949 146.954 388.949 151.78V218.69H356Z" fill="#0485CD"/>
<path d="M493.734 221C481.513 221 470.994 218.536 462.177 213.608C453.411 208.629 446.656 201.597 441.912 192.511C437.168 183.374 434.796 172.569 434.796 160.095C434.796 147.93 437.168 137.253 441.912 128.064C446.656 118.876 453.333 111.715 461.945 106.582C470.607 101.449 480.765 98.8828 492.419 98.8828C500.257 98.8828 507.553 100.14 514.308 102.655C521.114 105.119 527.044 108.841 532.097 113.82C537.202 118.799 541.173 125.062 544.009 132.607C546.845 140.102 548.263 148.879 548.263 158.94V167.949H447.945V147.622H517.247C517.247 142.899 516.216 138.716 514.153 135.071C512.09 131.427 509.229 128.578 505.568 126.525C501.958 124.42 497.756 123.368 492.96 123.368C487.959 123.368 483.524 124.523 479.657 126.833C475.841 129.091 472.85 132.145 470.685 135.995C468.519 139.794 467.41 144.029 467.359 148.7V168.026C467.359 173.878 468.442 178.934 470.607 183.194C472.825 187.455 475.944 190.74 479.966 193.05C483.988 195.36 488.758 196.515 494.275 196.515C497.936 196.515 501.288 196.002 504.33 194.975C507.372 193.948 509.976 192.408 512.142 190.355C514.308 188.302 515.958 185.787 517.092 182.809L547.566 184.811C546.02 192.1 542.848 198.466 538.053 203.907C533.309 209.296 527.173 213.506 519.645 216.534C512.168 219.511 503.531 221 493.734 221Z" fill="#0485CD"/>
<path d="M589.024 220.692C583.919 220.692 579.536 218.895 575.875 215.302C572.266 211.658 570.461 207.295 570.461 202.213C570.461 197.182 572.266 192.87 575.875 189.277C579.536 185.684 583.919 183.887 589.024 183.887C593.974 183.887 598.305 185.684 602.018 189.277C605.731 192.87 607.587 197.182 607.587 202.213C607.587 205.601 606.71 208.706 604.957 211.529C603.256 214.301 601.012 216.534 598.228 218.228C595.444 219.871 592.376 220.692 589.024 220.692ZM589.024 137.843C583.919 137.843 579.536 136.047 575.875 132.453C572.266 128.86 570.461 124.497 570.461 119.364C570.461 114.333 572.266 110.047 575.875 106.505C579.536 102.912 583.919 101.115 589.024 101.115C593.974 101.115 598.305 102.912 602.018 106.505C605.731 110.047 607.587 114.333 607.587 119.364C607.587 122.803 606.71 125.934 604.957 128.757C603.256 131.529 601.012 133.737 598.228 135.379C595.444 137.022 592.376 137.843 589.024 137.843Z" fill="#0485CD"/>
<path d="M678.416 220.615C669.393 220.615 661.22 218.305 653.898 213.685C646.627 209.014 640.852 202.161 636.572 193.127C632.344 184.041 630.23 172.902 630.23 159.71C630.23 146.159 632.421 134.892 636.804 125.909C641.187 116.874 647.014 110.124 654.284 105.658C661.607 101.141 669.625 98.8826 678.339 98.8826C684.991 98.8826 690.534 100.012 694.968 102.27C699.454 104.478 703.064 107.25 705.797 110.586C708.581 113.871 710.695 117.105 712.139 120.288H713.145V61H746.017V218.69H713.531V199.749H712.139C710.592 203.034 708.401 206.294 705.565 209.527C702.78 212.71 699.145 215.354 694.659 217.458C690.225 219.563 684.81 220.615 678.416 220.615ZM688.858 194.513C694.169 194.513 698.655 193.076 702.316 190.201C706.029 187.275 708.865 183.194 710.824 177.959C712.835 172.723 713.841 166.589 713.841 159.556C713.841 152.524 712.861 146.415 710.902 141.231C708.942 136.047 706.106 132.043 702.394 129.219C698.681 126.396 694.169 124.985 688.858 124.985C683.444 124.985 678.88 126.448 675.168 129.373C671.455 132.299 668.645 136.355 666.737 141.539C664.829 146.723 663.875 152.729 663.875 159.556C663.875 166.435 664.829 172.517 666.737 177.805C668.697 183.04 671.507 187.147 675.168 190.124C678.88 193.05 683.444 194.513 688.858 194.513Z" fill="#0485CD"/>
<path d="M826.785 221C814.771 221 804.381 218.459 795.615 213.377C786.9 208.244 780.171 201.109 775.427 191.972C770.684 182.784 768.312 172.132 768.312 160.018C768.312 147.801 770.684 137.124 775.427 127.987C780.171 118.799 786.9 111.664 795.615 106.582C804.381 101.449 814.771 98.8828 826.785 98.8828C838.8 98.8828 849.164 101.449 857.878 106.582C866.644 111.664 873.399 118.799 878.143 127.987C882.887 137.124 885.259 147.801 885.259 160.018C885.259 172.132 882.887 182.784 878.143 191.972C873.399 201.109 866.644 208.244 857.878 213.377C849.164 218.459 838.8 221 826.785 221ZM826.94 195.591C832.406 195.591 836.969 194.051 840.63 190.971C844.291 187.84 847.05 183.579 848.906 178.19C850.814 172.8 851.768 166.666 851.768 159.787C851.768 152.909 850.814 146.775 848.906 141.385C847.05 135.995 844.291 131.735 840.63 128.603C836.969 125.472 832.406 123.907 826.94 123.907C821.423 123.907 816.782 125.472 813.018 128.603C809.305 131.735 806.495 135.995 804.587 141.385C802.731 146.775 801.802 152.909 801.802 159.787C801.802 166.666 802.731 172.8 804.587 178.19C806.495 183.579 809.305 187.84 813.018 190.971C816.782 194.051 821.423 195.591 826.94 195.591Z" fill="#0485CD"/>
<path d="M982.869 168.334V100.423H1015.82V218.69H984.184V197.208H982.947C980.265 204.138 975.805 209.707 969.566 213.916C963.378 218.125 955.824 220.23 946.903 220.23C938.963 220.23 931.976 218.433 925.943 214.84C919.91 211.247 915.192 206.14 911.788 199.518C908.437 192.896 906.735 184.965 906.684 175.726V100.423H939.633V169.874C939.684 176.855 941.566 182.373 945.279 186.428C948.992 190.483 953.968 192.511 960.207 192.511C964.177 192.511 967.89 191.613 971.345 189.816C974.799 187.968 977.584 185.248 979.698 181.654C981.864 178.061 982.921 173.621 982.869 168.334Z" fill="#0485CD"/>
<path d="M1042.79 218.69V61H1075.74V120.288H1076.75C1078.19 117.105 1080.28 113.871 1083.01 110.586C1085.8 107.25 1089.41 104.478 1093.84 102.27C1098.33 100.012 1103.9 98.8826 1110.55 98.8826C1119.21 98.8826 1127.2 101.141 1134.53 105.658C1141.85 110.124 1147.7 116.874 1152.08 125.909C1156.47 134.892 1158.66 146.159 1158.66 159.71C1158.66 172.902 1156.52 184.041 1152.24 193.127C1148.01 202.161 1142.23 209.014 1134.91 213.685C1127.64 218.305 1119.49 220.615 1110.47 220.615C1104.08 220.615 1098.64 219.563 1094.15 217.458C1089.72 215.354 1086.08 212.71 1083.24 209.527C1080.41 206.294 1078.24 203.034 1076.75 199.749H1075.28V218.69H1042.79ZM1075.05 159.556C1075.05 166.589 1076.03 172.723 1077.99 177.959C1079.94 183.194 1082.78 187.275 1086.49 190.201C1090.21 193.076 1094.72 194.513 1100.03 194.513C1105.39 194.513 1109.93 193.05 1113.64 190.124C1117.35 187.147 1120.16 183.04 1122.07 177.805C1124.03 172.517 1125.01 166.435 1125.01 159.556C1125.01 152.729 1124.06 146.723 1122.15 141.539C1120.24 136.355 1117.43 132.299 1113.72 129.373C1110.01 126.448 1105.44 124.985 1100.03 124.985C1094.67 124.985 1090.13 126.396 1086.42 129.219C1082.76 132.043 1079.94 136.047 1077.99 141.231C1076.03 146.415 1075.05 152.524 1075.05 159.556Z" fill="#0485CD"/>
<path d="M1243.83 100.423V125.062H1172.29V100.423H1243.83ZM1188.53 72.0874H1221.48V182.347C1221.48 185.376 1221.95 187.737 1222.87 189.431C1223.8 191.074 1225.09 192.229 1226.74 192.896C1228.44 193.563 1230.4 193.897 1232.62 193.897C1234.17 193.897 1235.71 193.769 1237.26 193.512C1238.81 193.204 1239.99 192.973 1240.82 192.819L1246 217.227C1244.35 217.74 1242.03 218.331 1239.04 218.998C1236.05 219.717 1232.41 220.153 1228.13 220.307C1220.19 220.615 1213.23 219.563 1207.25 217.15C1201.32 214.738 1196.7 210.99 1193.4 205.909C1190.1 200.827 1188.48 194.41 1188.53 186.659V72.0874Z" fill="#0485CD"/>
<path fill-rule="evenodd" clip-rule="evenodd" d="M122.499 1.36454C106.33 3.77454 92.558 8.26154 77.124 16.1465C44.926 32.5955 18.571 63.4445 7.001 98.2265C1.134 115.864 0 123.257 0 143.878C0 164.499 1.134 171.892 7.001 189.529C24.118 240.987 69.301 278.723 122.999 286.41C169.082 293.007 215.335 276.986 247.5 243.285C266.352 223.533 279.332 198.666 285.035 171.378C287.319 160.444 288.079 138.11 286.556 126.616C278.81 68.1315 239.016 21.6955 182.567 5.27054C164.906 0.131545 141.134 -1.41446 122.499 1.36454ZM121.981 54.5765C123.091 56.3365 124.61 58.0285 125.357 58.3365C126.105 58.6455 130.015 57.0765 134.047 54.8505L141.379 50.8035L151.189 51.0905L160.999 51.3775L161.281 63.1045L161.562 74.8315L143.781 75.1045L125.999 75.3775L125.733 103.128L125.467 130.878H136.571C147.445 130.878 147.806 130.952 154.064 134.451C157.578 136.416 160.913 137.74 161.476 137.392C162.127 136.99 162.504 127.965 162.513 112.569C162.52 99.2635 162.801 87.3525 163.137 86.0995C163.738 83.8565 163.951 83.8255 176.873 84.0995L189.999 84.3775L190.255 159.815C190.458 219.503 190.249 235.419 189.255 236.05C188.564 236.488 183.785 236.854 178.634 236.863L169.269 236.878L166.063 233.378C164.3 231.453 162.039 229.878 161.039 229.878C160.038 229.878 156.92 231.34 154.11 233.128L148.999 236.378H133.999H118.999L107.999 229.812L96.999 223.246L96.741 138.312C96.599 91.5976 96.703 52.8005 96.972 52.0945C97.339 51.1315 100.269 50.8825 108.712 51.0945L119.962 51.3775L121.981 54.5765ZM124.96 156.12C124.688 156.827 124.586 169.775 124.732 184.892L124.999 212.378H143.499H161.999V183.878V155.378L143.726 155.105C129.552 154.894 125.343 155.121 124.96 156.12Z" fill="#0485CD"/>
</g>
</g>
<defs>
<clipPath id="clip0_230_2">
<rect width="1246" height="288" fill="white"/>
</clipPath>
</defs>
</svg>
