<svg width="434" height="456" viewBox="0 0 434 456" fill="none" xmlns="http://www.w3.org/2000/svg">
<path d="M433.621 266.419C433.612 281.411 433.648 281.519 420.061 286.093C404.695 291.266 389.258 296.228 373.841 301.247C373.077 301.495 372.204 301.409 371.021 301.51C371.021 222.985 371.021 144.603 371.021 65.8188C379.225 68.5329 387.39 71.2747 395.582 73.935C406.767 77.5669 417.947 81.2176 429.183 84.683C432.479 85.6995 433.833 87.2149 433.762 90.9348C433.488 105.262 433.614 119.598 433.613 133.93C433.61 177.927 433.618 221.925 433.621 266.419Z" fill="#0DC790"/>
<path d="M207.592 441.29C193.021 446.049 178.85 450.737 164.459 455.497C144.122 427.256 123.854 399.018 103.477 370.858C94.044 357.824 84.0175 345.203 74.9638 331.916C67.487 320.942 58.7438 310.928 51.5361 299.774C50.1334 297.604 49.5261 295.798 51.1199 293.608C62.7673 277.599 74.406 261.583 86.0678 245.585C86.3299 245.225 86.832 245.041 87.6445 244.486C133.693 307.792 179.721 371.068 226.406 435.249C219.871 437.368 213.931 439.295 207.592 441.29Z" fill="#0EC790"/>
<path d="M190.012 7.16462C207.427 12.8756 224.475 18.4284 241.549 23.9017C265.188 31.4797 288.853 38.9779 312.494 46.5496C324.787 50.4867 337.077 54.4392 349.29 58.6112C350.371 58.9804 351.558 61.0373 351.547 62.2996C351.393 78.9017 351.02 95.5017 350.732 112.103C350.669 115.752 350.723 119.404 350.723 123.985C275.466 99.5733 201.053 75.4355 126.524 51.2604C138.719 34.2602 150.368 17.8359 162.345 1.65482C163.361 0.281378 166.808 -0.337214 168.721 0.183202C175.792 2.10721 182.693 4.65668 190.012 7.16462Z" fill="#0EC790"/>
<path d="M417.784 372.451C397.607 379.054 377.849 385.686 358.052 392.196C330.973 401.102 303.86 409.902 276.771 418.776C268.077 421.625 259.306 424.289 250.791 427.603C247.598 428.846 246.039 427.695 244.542 425.655C232.635 409.425 220.801 393.142 208.425 376.163C283.516 351.728 358.225 327.418 433.671 302.868C433.671 306.68 433.673 309.632 433.671 312.584C433.655 329.239 433.452 345.898 433.748 362.548C433.824 366.831 432.117 368.415 428.473 369.327C425.003 370.195 421.612 371.38 417.784 372.451Z" fill="#0EC790"/>
<path d="M131.351 149.178C122.785 161.035 114.535 172.677 106.148 184.22C96.7968 197.09 87.2603 209.826 77.9165 222.701C64.3279 241.426 50.8395 260.224 37.0362 279.368C32.167 272.569 27.4823 265.931 22.6952 259.368C15.7364 249.827 8.73222 240.319 1.68503 230.843C-0.40245 228.036 -0.734146 226.041 1.73755 222.707C19.3165 198.997 36.521 175.009 53.8415 151.107C66.2583 133.972 78.6722 116.835 91.0837 99.6965C98.0127 90.1285 104.837 80.4811 111.969 71.0673C112.986 69.7257 115.8 68.4752 117.243 68.9225C133.29 73.8985 149.235 79.2061 165.198 84.4526C168.592 85.5683 171.949 86.7988 176.015 88.2177C161.164 108.517 146.385 128.718 131.351 149.178Z" fill="#0EC790"/>
<path d="M185.95 246.679C187.34 243.123 188.829 244.864 189.934 246.308C194.216 251.906 198.41 257.573 202.586 263.252C208.695 271.56 215.133 279.658 220.735 288.297C225.921 296.296 232.352 303.285 237.784 311.066C243.312 318.983 249.281 326.591 254.976 334.393C255.925 335.694 256.458 337.299 257.219 338.836C237.721 345.315 218.397 351.79 199.005 358.056C197.755 358.46 195.32 357.746 194.553 356.718C180.833 338.341 167.616 319.578 153.507 301.51C149.056 295.81 152.718 292.403 155.054 289.047C164.972 274.804 175.435 260.941 185.95 246.679Z" fill="#0EC790"/>
<path d="M306.519 258.402C321.567 253.419 336.21 248.473 351.331 243.365C351.453 245.336 351.635 246.914 351.636 248.492C351.644 266.825 351.515 285.16 351.704 303.491C351.743 307.256 350.672 309.088 347.008 310.258C325.306 317.192 303.649 324.267 282.057 331.534C279.149 332.513 277.334 332.082 275.701 329.85C263.811 313.588 251.944 297.308 239.463 280.202C261.977 272.851 284.046 265.646 306.519 258.402Z" fill="#0EC790"/>
<path d="M176.4 121.16C182.092 113.135 187.571 105.41 193.063 97.6945C194.915 95.0926 197.15 95.1606 200.042 96.1267C220.295 102.89 240.622 109.43 260.894 116.135C269.667 119.037 269.651 119.138 269.657 128.283C269.669 146.417 269.66 164.551 269.66 183.669C232.084 171.442 195.081 159.402 157.684 147.233C164.059 138.357 170.125 129.91 176.4 121.16Z" fill="#0EC790"/>
<path d="M160.304 168.77C175.801 173.973 190.955 178.966 206.964 184.24C183.742 216.259 160.991 247.628 137.829 279.564C133.72 273.711 129.795 267.929 125.674 262.29C117.745 251.439 109.751 240.633 101.674 229.892C99.998 227.663 100.158 226.002 101.764 223.826C112.651 209.073 123.448 194.253 134.237 179.427C137.126 175.457 139.977 171.452 142.668 167.347C144.363 164.763 146.05 163.761 149.231 165.171C152.638 166.681 156.369 167.461 160.304 168.77Z" fill="#0EC790"/>
<path d="M433.621 266.419C433.612 281.411 433.648 281.519 420.061 286.093C404.695 291.266 389.258 296.228 373.841 301.247C373.077 301.495 372.204 301.409 371.021 301.51C371.021 222.985 371.021 144.603 371.021 65.8188C379.225 68.5329 387.39 71.2747 395.582 73.935C406.767 77.5669 417.947 81.2176 429.183 84.683C432.479 85.6995 433.833 87.2149 433.762 90.9348C433.488 105.262 433.614 119.598 433.613 133.93C433.61 177.927 433.618 221.925 433.621 266.419Z" fill="#0DC790"/>
<path d="M207.592 441.29C193.021 446.049 178.85 450.737 164.459 455.497C144.122 427.256 123.854 399.018 103.477 370.858C94.044 357.824 84.0175 345.203 74.9638 331.916C67.487 320.942 58.7438 310.928 51.5361 299.774C50.1334 297.604 49.5261 295.798 51.1199 293.608C62.7673 277.599 74.406 261.583 86.0678 245.585C86.3299 245.225 86.832 245.041 87.6445 244.486C133.693 307.792 179.721 371.068 226.406 435.249C219.871 437.368 213.931 439.295 207.592 441.29Z" fill="#0EC790"/>
<path d="M190.012 7.16462C207.427 12.8756 224.475 18.4284 241.549 23.9017C265.188 31.4797 288.853 38.9779 312.494 46.5496C324.787 50.4867 337.077 54.4392 349.29 58.6112C350.371 58.9804 351.558 61.0373 351.547 62.2996C351.393 78.9017 351.02 95.5017 350.732 112.103C350.669 115.752 350.723 119.404 350.723 123.985C275.466 99.5733 201.053 75.4355 126.524 51.2604C138.719 34.2602 150.368 17.8359 162.345 1.65482C163.361 0.281378 166.808 -0.337214 168.721 0.183202C175.792 2.10721 182.693 4.65668 190.012 7.16462Z" fill="#0EC790"/>
<path d="M417.784 372.451C397.607 379.054 377.849 385.686 358.052 392.196C330.973 401.102 303.86 409.902 276.771 418.776C268.077 421.625 259.306 424.289 250.791 427.603C247.598 428.846 246.039 427.695 244.542 425.655C232.635 409.425 220.801 393.142 208.425 376.163C283.516 351.728 358.225 327.418 433.671 302.868C433.671 306.68 433.673 309.632 433.671 312.584C433.655 329.239 433.452 345.898 433.748 362.548C433.824 366.831 432.117 368.415 428.473 369.327C425.003 370.195 421.612 371.38 417.784 372.451Z" fill="#0EC790"/>
<path d="M131.351 149.178C122.785 161.035 114.535 172.677 106.148 184.22C96.7968 197.09 87.2603 209.826 77.9165 222.701C64.3279 241.426 50.8395 260.224 37.0362 279.368C32.167 272.569 27.4823 265.931 22.6952 259.368C15.7364 249.827 8.73222 240.319 1.68503 230.843C-0.40245 228.036 -0.734146 226.041 1.73755 222.707C19.3165 198.997 36.521 175.009 53.8415 151.107C66.2583 133.972 78.6722 116.835 91.0837 99.6965C98.0127 90.1285 104.837 80.4811 111.969 71.0673C112.986 69.7257 115.8 68.4752 117.243 68.9225C133.29 73.8985 149.235 79.2061 165.198 84.4526C168.592 85.5683 171.949 86.7988 176.015 88.2177C161.164 108.517 146.385 128.718 131.351 149.178Z" fill="#0EC790"/>
<path d="M185.95 246.679C187.34 243.123 188.829 244.864 189.934 246.308C194.216 251.906 198.41 257.573 202.586 263.252C208.695 271.56 215.133 279.658 220.735 288.297C225.921 296.296 232.352 303.285 237.784 311.066C243.312 318.983 249.281 326.591 254.976 334.393C255.925 335.694 256.458 337.299 257.219 338.836C237.721 345.315 218.397 351.79 199.005 358.056C197.755 358.46 195.32 357.746 194.553 356.718C180.833 338.341 167.616 319.578 153.507 301.51C149.056 295.81 152.718 292.403 155.054 289.047C164.972 274.804 175.435 260.941 185.95 246.679Z" fill="#0EC790"/>
<path d="M306.519 258.402C321.567 253.419 336.21 248.473 351.331 243.365C351.453 245.336 351.635 246.914 351.636 248.492C351.644 266.825 351.515 285.16 351.704 303.491C351.743 307.256 350.672 309.088 347.008 310.258C325.306 317.192 303.649 324.267 282.057 331.534C279.149 332.513 277.334 332.082 275.701 329.85C263.811 313.588 251.944 297.308 239.463 280.202C261.977 272.851 284.046 265.646 306.519 258.402Z" fill="#0EC790"/>
<path d="M176.4 121.16C182.092 113.135 187.571 105.41 193.063 97.6945C194.915 95.0926 197.15 95.1606 200.042 96.1267C220.295 102.89 240.622 109.43 260.894 116.135C269.667 119.037 269.651 119.138 269.657 128.283C269.669 146.417 269.66 164.551 269.66 183.669C232.084 171.442 195.081 159.402 157.684 147.233C164.059 138.357 170.125 129.91 176.4 121.16Z" fill="#0EC790"/>
<path d="M160.304 168.77C175.801 173.973 190.955 178.966 206.964 184.24C183.742 216.259 160.991 247.628 137.829 279.564C133.72 273.711 129.795 267.929 125.674 262.29C117.745 251.439 109.751 240.633 101.674 229.892C99.998 227.663 100.158 226.002 101.764 223.826C112.651 209.073 123.448 194.253 134.237 179.427C137.126 175.457 139.977 171.452 142.668 167.347C144.363 164.763 146.05 163.761 149.231 165.171C152.638 166.681 156.369 167.461 160.304 168.77Z" fill="#0EC790"/>
<path d="M290.664 125.648C306.614 130.73 322.58 135.763 338.503 140.925C342.81 142.321 348.547 142.969 350.784 146.036C352.959 149.015 351.587 154.657 351.595 159.13C351.631 178.284 351.468 197.44 351.698 216.592C351.748 220.855 350.798 222.837 346.371 224.185C327.602 229.899 308.993 236.141 289.736 242.38C289.736 203.817 289.736 165.583 289.98 126.798C290.431 126.093 290.578 125.893 290.664 125.648Z" fill="#0DC790"/>
<path d="M290.421 125.618C290.579 125.893 290.431 126.093 290.056 126.335C289.712 126.049 289.807 125.771 290.421 125.618Z" fill="#20CB99"/>
</svg>
